<?xml version="1.0" encoding="utf-8"?><svg xmlns="http://www.w3.org/2000/svg" xmlns:xlink="http://www.w3.org/1999/xlink"><symbol viewBox="0 0 14 10" id="check"><path fill="currentColor" d="M12.8 1.21a.67.67 0 0 0-.98 0L5.23 8.23 2.17 4.98a.66.66 0 0 0-.97 0 .76.76 0 0 0 0 1.04l3.54 3.77c.13.13.31.2.49.2s.36-.07.48-.2l7.09-7.54a.76.76 0 0 0 0-1.04z"/></symbol><symbol viewBox="0 0 14 14" id="copy"><path fill="currentColor" d="M2.52 9.58a.5.5 0 0 1-.38-.16c-.11-.1-.14-.25-.14-.4v-6.7c0-.16.03-.27.14-.38.1-.1.22-.14.38-.14h6.8c.15 0 .29.04.39.14.11.1.17.23.17.38A.56.56 0 0 0 11 2.31 1.71 1.71 0 0 0 9.32.59h-6.8A1.78 1.78 0 0 0 .76 2.32v6.7c0 .46.22.88.53 1.18.3.3.75.5 1.21.5.31 0 .57-.26.57-.56a.55.55 0 0 0-.55-.56zM13.77 5.2a1.7 1.7 0 0 0-1.69-1.7H5.29A1.7 1.7 0 0 0 3.6 5.23v6.7a1.69 1.69 0 0 0 1.69 1.69l6.78-.01a1.69 1.69 0 0 0 1.7-1.68zm-1.12 6.7a.7.7 0 0 1-.17.42.6.6 0 0 1-.41.19H5.29a.56.56 0 0 1-.41-.18.57.57 0 0 1-.17-.42v-6.7a.6.6 0 0 1 .17-.42c.1-.1.24-.19.41-.19h6.79c.16 0 .3.09.4.19.1.1.17.24.17.4z"/></symbol><symbol viewBox="0 0 11 12" id="delete-black"><path fill="#0e2639" d="M8.79 4.35a.63.63 0 0 0-.67.6l-.33 5.02-.01.05c0 .1-.01.18-.05.26a.66.66 0 0 1-.61.42H3.88a.65.65 0 0 1-.55-.3.7.7 0 0 1-.11-.38l-.01-.05-.33-5.02a.63.63 0 0 0-.67-.6.65.65 0 0 0-.59.7l.34 5.01c0 .26.05.5.15.73A1.9 1.9 0 0 0 3.88 12h3.24a1.95 1.95 0 0 0 1.92-1.94l.34-5.02a.65.65 0 0 0-.59-.7zm1.58-1.68H7.75v-.6a1.1 1.1 0 0 0-.45-.89A1.04 1.04 0 0 0 6.72 1H4.28a.99.99 0 0 0-.4.08c-.19.09-.34.22-.46.39a1.1 1.1 0 0 0-.17.6v.6H.63c-.35 0-.63.3-.63.65 0 .36.28.65.63.65h9.74c.35 0 .63-.29.63-.65a.64.64 0 0 0-.63-.65zM4.51 2.3h1.98v.37H4.51z"/></symbol><symbol viewBox="0 0 13 10" id="directory"><path fill="currentColor" d="M12.84 3a1.89 1.89 0 0 0-.73-.82c-.32-.2-.72-.32-1.13-.32H8.06a.73.73 0 0 1-.49-.18L6.19.46C5.86.16 5.41 0 4.95 0H2.04A2.16 2.16 0 0 0 .35.82C.13 1.12 0 1.5 0 1.87v6.26a1.8 1.8 0 0 0 .9 1.55c.32.2.72.32 1.14.32h8.92c.28 0 .55-.05.79-.15.37-.14.68-.38.9-.68.22-.3.35-.66.35-1.04V3.7c0-.25-.06-.5-.16-.72zm-1 5.47a.98.98 0 0 1-.88.53H2.04c-.13 0-.26-.03-.37-.07a.93.93 0 0 1-.42-.32.83.83 0 0 1-.16-.48V1.87c0-.12.03-.23.07-.34A.98.98 0 0 1 2.04 1h2.91c.18 0 .35.06.48.18L6.81 2.4c.34.3.78.46 1.25.46h2.92a.9.9 0 0 1 .77.38c.1.13.16.3.16.47v4.42c0 .12-.03.23-.07.34z"/></symbol><symbol viewBox="0 0 9 7" id="hamburger"><path fill="currentColor" d="M0 1V0h9v1zm0 3V3h9v1zm0 3V6h9v1z"/></symbol><symbol viewBox="0 0 13 11" id="note"><path fill="currentColor" d="M11.94.14H1.42a.74.74 0 0 0-.75.74c0 .4.34.74.75.74h10.52c.4 0 .74-.33.74-.74 0-.4-.33-.74-.74-.74zM1.42 4.46h6.7c.4 0 .74-.33.74-.74 0-.4-.34-.74-.75-.74h-6.7a.74.74 0 0 0-.74.74c0 .41.34.74.75.74zm0 2.85h1.91c.41 0 .74-.34.74-.74 0-.41-.33-.74-.74-.74H1.42a.74.74 0 0 0-.75.74c0 .4.34.74.75.74zm10.52-1.48H6.2a.74.74 0 0 0-.74.74c0 .4.33.74.74.74h5.74c.4 0 .74-.34.74-.74 0-.41-.33-.74-.74-.74zm-3.4 2.84H1.42a.74.74 0 0 0-.75.74c0 .4.34.74.75.74h7.12c.4 0 .74-.33.74-.74 0-.4-.33-.74-.74-.74z"/></symbol><symbol viewBox="0 0 12 12" id="tag"><path fill="currentColor" d="M12 2.01c0-.28-.07-.54-.18-.78A2.16 2.16 0 0 0 9.9 0H7.13c-.44 0-.85.17-1.16.47L.48 5.93a1.6 1.6 0 0 0-.34 1.8c.09.21.23.4.42.56l3.8 3.3a1.64 1.64 0 0 0 2.23-.06l4.93-4.9c.31-.31.48-.72.48-1.15zm-1.53 3.57l-4.94 4.9-.04.03a.2.2 0 0 1-.06.01.2.2 0 0 1-.05 0l-.04-.03-3.8-3.3a.15.15 0 0 1-.04-.06l-.01-.05.01-.06.03-.04 5.49-5.46a.17.17 0 0 1 .11-.04H9.9c.07 0 .15.01.22.04.11.05.23.14.3.24l.07.14c.02.05.02.08.02.11v3.47c0 .04-.01.07-.04.1zm-2.03-3a.96.96 0 0 0-.97.96c0 .53.43.96.97.96a.96.96 0 1 0 0-1.92z"/></symbol></svg>