<svg xmlns="http://www.w3.org/2000/svg" width="14" height="14" viewBox="0 0 14 14"><path fill="#7b80de" d="M2.52 9.58a.5.5 0 0 1-.38-.16c-.11-.1-.14-.25-.14-.4v-6.7c0-.16.03-.27.14-.38.1-.1.22-.14.38-.14h6.8c.15 0 .29.04.39.14.11.1.17.23.17.38A.56.56 0 0 0 11 2.31 1.71 1.71 0 0 0 9.32.59h-6.8A1.78 1.78 0 0 0 .76 2.32v6.7c0 .46.22.88.53 1.18.3.3.75.5 1.21.5.31 0 .57-.26.57-.56 0-.31-.24-.56-.55-.56zM13.77 5.2a1.7 1.7 0 0 0-1.69-1.7H5.29A1.7 1.7 0 0 0 3.6 5.23v6.7a1.69 1.69 0 0 0 1.69 1.69l6.78-.01a1.69 1.69 0 0 0 1.7-1.68zm-1.12 6.7a.7.7 0 0 1-.17.42.6.6 0 0 1-.41.19H5.29a.56.56 0 0 1-.41-.18.57.57 0 0 1-.17-.42v-6.7a.6.6 0 0 1 .17-.42c.1-.1.24-.19.41-.19h6.79c.16 0 .3.09.4.19.1.1.17.24.17.4z"/></svg>