<svg xmlns="http://www.w3.org/2000/svg" width="11" height="12" viewBox="0 0 11 12"><path fill="#0e2639" d="M8.79 4.35a.63.63 0 0 0-.67.6l-.33 5.02-.01.05c0 .1-.01.18-.05.26a.66.66 0 0 1-.61.42H3.88a.65.65 0 0 1-.55-.3.7.7 0 0 1-.11-.38l-.01-.05-.33-5.02a.63.63 0 0 0-.67-.6.65.65 0 0 0-.59.7l.34 5.01c0 .26.05.5.15.73A1.9 1.9 0 0 0 3.88 12h3.24a1.95 1.95 0 0 0 1.92-1.94l.34-5.02a.65.65 0 0 0-.59-.7zm1.58-1.68H7.75v-.6a1.1 1.1 0 0 0-.45-.89A1.04 1.04 0 0 0 6.72 1H4.28a.99.99 0 0 0-.4.08c-.19.09-.34.22-.46.39a1.1 1.1 0 0 0-.17.6v.6H.63c-.35 0-.63.3-.63.65 0 .36.28.65.63.65h9.74c.35 0 .63-.29.63-.65a.64.64 0 0 0-.63-.65zM4.51 2.3h1.98v.37H4.51z"/></svg>