<svg xmlns="http://www.w3.org/2000/svg" width="12" height="11" viewBox="0 0 12 11"><path fill="#0e2639" d="M12 5.6a2.5 2.5 0 0 0-2.51-2.47h-2a.88.88 0 0 1-.6-.23L5.6 1.62C5.18 1.21 4.63 1 4.06 1H2.53a2.53 2.53 0 0 0-2.1 1.1C.16 2.5 0 2.98 0 3.5v5A2.5 2.5 0 0 0 2.53 11h6.94A2.52 2.52 0 0 0 12 8.5zm-1.35 2.9a1.12 1.12 0 0 1-.52.97c-.19.13-.41.2-.66.2H2.53A1.18 1.18 0 0 1 1.35 8.5V3.49a1.13 1.13 0 0 1 .52-.96c.19-.13.41-.2.66-.2h1.53c.22 0 .44.09.6.24l1.28 1.28h.01c.41.4.97.62 1.54.62h2c.16 0 .31.03.45.09.21.08.39.23.51.41.13.18.2.4.2.64z"/></svg>