<svg xmlns="http://www.w3.org/2000/svg" width="13" height="10" viewBox="0 0 13 10"><path fill="#7b80de" d="M12.84 3a1.89 1.89 0 0 0-.73-.82c-.32-.2-.72-.32-1.13-.32H8.06a.73.73 0 0 1-.49-.18L6.19.46C5.86.16 5.41 0 4.95 0H2.04A2.16 2.16 0 0 0 .35.82C.13 1.12 0 1.5 0 1.87v6.26a1.8 1.8 0 0 0 .9 1.55c.32.2.72.32 1.14.32h8.92c.28 0 .55-.05.79-.15.37-.14.68-.38.9-.68.22-.3.35-.66.35-1.04V3.7c0-.25-.06-.5-.16-.72zm-1 5.47a.98.98 0 0 1-.88.53H2.04c-.13 0-.26-.03-.37-.07a.93.93 0 0 1-.42-.32.83.83 0 0 1-.16-.48V1.87c0-.12.03-.23.07-.34A.98.98 0 0 1 2.04 1h2.91c.18 0 .35.06.48.18L6.81 2.4c.34.3.78.46 1.25.46h2.92a.9.9 0 0 1 .77.38c.1.13.16.3.16.47v4.42c0 .12-.03.23-.07.34z"/></svg>