<svg xmlns="http://www.w3.org/2000/svg" width="13" height="12" viewBox="0 0 13 12"><path fill="#fff" d="M11.91 1.13A1.95 1.95 0 0 0 10.78.11a1.73 1.73 0 0 0-.55-.08H7.5c-.36 0-.7.14-.96.4L1.1 5.98a1.4 1.4 0 0 0-.4.99A1.4 1.4 0 0 0 1.17 8l3.75 3.35a1.39 1.39 0 0 0 .9.34 1.33 1.33 0 0 0 .97-.4l4.88-4.98c.25-.26.4-.61.4-.98V1.82c0-.24-.06-.47-.16-.69zm-.94 4.48l-4.88 4.97a.37.37 0 0 1-.52.02L1.82 7.25a.4.4 0 0 1-.02-.57l5.42-5.53a.38.38 0 0 1 .27-.12h2.74c.11 0 .22.03.32.07a.97.97 0 0 1 .5.53c.02.07.03.13.03.2v3.5c0 .11-.04.2-.11.28zM8.79 2.4a.96.96 0 0 0-.95.97c0 .54.42.97.95.97.52 0 .95-.43.95-.97a.96.96 0 0 0-.95-.97z"/></svg>