<svg xmlns="http://www.w3.org/2000/svg" width="12" height="12" viewBox="0 0 12 12"><path fill="#0e2639" d="M12 2.01c0-.28-.07-.54-.18-.78A2.16 2.16 0 0 0 9.9 0H7.13c-.44 0-.85.17-1.16.47L.48 5.93a1.6 1.6 0 0 0-.34 1.8c.09.21.23.4.42.56l3.8 3.3a1.64 1.64 0 0 0 2.23-.06l4.93-4.9c.31-.31.48-.72.48-1.15zm-1.53 3.57l-4.94 4.9-.04.03a.2.2 0 0 1-.06.01.2.2 0 0 1-.05 0l-.04-.03-3.8-3.3a.15.15 0 0 1-.04-.06l-.01-.05.01-.06.03-.04 5.49-5.46a.17.17 0 0 1 .11-.04H9.9c.07 0 .15.01.22.04.11.05.23.14.3.24l.07.14c.02.05.02.08.02.11v3.47c0 .04-.01.07-.04.1zm-2.03-3a.96.96 0 0 0-.97.96c0 .53.43.96.97.96a.96.96 0 1 0 0-1.92z"/></svg>