<svg xmlns="http://www.w3.org/2000/svg" width="233" height="162" viewBox="0 0 233 162"><path fill="#31383c" d="M64.71 23.64h-49.7A5.01 5.01 0 0 0 10 28.66v111.32a5.01 5.01 0 0 0 5.01 5.02h205.98C223.76 145 233 41.77 233 39l-14-27c-3.71-4.45-5.78-5.83-12-6H99.45a7.66 7.66 0 0 0-5.04 2.02l-15.39 13.6a7.67 7.67 0 0 1-4.33 1.99c-.23.02-9.74.03-9.98.03z"/><path fill="#434b50" d="M193.98 19h33.61a5.4 5.4 0 0 1 5.41 5.4v132.2a5.4 5.4 0 0 1-5.41 5.4H5.41A5.4 5.4 0 0 1 0 156.6V5.4A5.4 5.4 0 0 1 5.41 0h151.1a8.3 8.3 0 0 1 5.44 2.18l16.59 14.64a8.33 8.33 0 0 0 4.67 2.14c.26.02 10.51.04 10.77.04z"/></svg>